<?xml version="1.0" encoding="utf-8"?>
<svg version="1.1" id="Layer_1" xmlns="http://www.w3.org/2000/svg" xmlns:xlink="http://www.w3.org/1999/xlink" x="0px" y="0px"
	 viewBox="0 0 40 40" style="enable-background:new 0 0 40 40;" xml:space="preserve">
<style type="text/css">
	.st0{fill:#8A949E;}
</style>
<desc>Created with Sketch.</desc>
<path class="st0" d="M34.2,40c2.7-11.2-10.5-7.8-10.7-14.2c1-1.1,1.8-2.4,2-3.2c0.1-0.5,0.2-1,0.3-1.5c0.4-0.2,0.8-0.6,1-1
	c0.3-0.7,0.4-2.1,0.4-2.1c0.1-1.1-0.3-1.8-0.3-1.8c0.5-4.6-1-5.5-2-5.6c-0.3-0.1-0.9-0.2-1.1-0.4C23.2,9.5,23,8.8,22,8.9
	c-0.3,0-0.8-0.1-1.1-0.3c-0.4-0.3-0.9-0.7-1.2-0.7c-0.4,0-0.8,0.3-1.2,0.6c-0.3,0.2-0.7,0.4-1.1,0.3c-0.9-0.1-1.2,0.6-1.7,1.2
	c-0.2,0.3-0.8,0.4-1.1,0.4c-1,0.2-2.4,1.1-2,5.6c0,0-0.4,0.7-0.3,1.8c0,0.1,0.1,1.5,0.4,2.1c0.2,0.5,0.5,0.8,1,1
	c0.1,0.4,0.2,0.9,0.3,1.5c0.2,0.8,1,2.2,2,3.3C15.9,32.2,2.7,28.8,5.4,40H34.2z"/>
</svg>
