<?xml version="1.0" encoding="UTF-8"?>
<svg width="16px" height="16px" viewBox="0 0 16 16" version="1.1" xmlns="http://www.w3.org/2000/svg" xmlns:xlink="http://www.w3.org/1999/xlink">
    <!-- Generator: Sketch 50.2 (55047) - http://www.bohemiancoding.com/sketch -->
    <title>Facebook</title>
    <desc>Created with Sketch.</desc>
    <defs></defs>
    <g id="Page-1" stroke="none" stroke-width="1" fill="none" fill-rule="evenodd">
        <g id="2.6.1.1-Settings---Account" transform="translate(-501.000000, -835.000000)" fill="#898F9C">
            <g id="Group-9" transform="translate(335.000000, 138.000000)">
                <g id="Facebook" transform="translate(166.000000, 695.000000)">
                    <path d="M16,17.1169949 C16,17.6046961 15.6046961,18 15.1169949,18 L11.0397429,18 L11.0397429,11.8041459 L13.1195554,11.8041459 L13.4311787,9.38917491 L11.0397429,9.38917491 L11.0397429,7.8476206 C11.0397429,7.14853859 11.234126,6.6721691 12.2365504,6.6721691 L13.5152951,6.67129743 L13.5152951,4.51172673 C13.294326,4.48208984 12.5350985,4.41671434 11.6520934,4.41671434 C9.80850426,4.41671434 8.54632127,5.54204462 8.54632127,7.60834627 L8.54632127,9.38917491 L6.46127864,9.38917491 L6.46127864,11.8041459 L8.54632127,11.8041459 L8.54632127,18 L0.883005094,18 C0.39530386,18 1.77635684e-15,17.6046961 1.77635684e-15,17.1169949 L1.77635684e-15,2.88300509 C1.77635684e-15,2.39530386 0.39530386,2 0.883005094,2 L15.1169949,2 C15.6046961,2 16,2.39530386 16,2.88300509 L16,17.1169949"></path>
                </g>
            </g>
        </g>
    </g>
</svg>